<svg xmlns="http://www.w3.org/2000/svg" width="22" height="18" fill="none"><path fill="#5718FF" stroke="#5718FF" stroke-width=".2" d="M4.409 17.776a.55.55 0 0 1-.399-.199.64.64 0 0 1-.134-.334h-.008v-.1c0-1.305.346-2.527.945-3.582H1.435a.551.551 0 0 1-.42-.177.671.671 0 0 1-.159-.444m3.553 4.836L.956 12.937m3.453 4.839h.007l13.139.002a.58.58 0 0 0 .579-.579 7.61 7.61 0 0 0-.969-3.638h3.399a.58.58 0 0 0 .579-.58c-.03-2.402-1.382-4.433-3.501-5.302a4.052 4.052 0 0 0 1.876-3.42c0-3.463-4.05-5.298-6.614-3.054a5.03 5.03 0 0 0-3.809 0A3.963 3.963 0 0 0 6.482.222C2.452.222.995 5.574 4.357 7.68m.052 10.096.174-10.077a4.486 4.486 0 0 1-.11-.065l-.116.046m-3.5 5.26.1-.003m-.1.003.1-.003m-.1.003c-.056-2.266 1.422-4.4 3.5-5.26m-3.4 5.257C.9 10.691 2.385 8.571 4.462 7.745a4.514 4.514 0 0 1-.106-.065m.63 5.781H4.87l.058.1.059-.1ZM17.53 2.221c1.682 1.699.666 4.61-1.652 4.897a5.085 5.085 0 0 0-1.883-5.291 2.82 2.82 0 0 1 3.535.394ZM6.125 7.118c-1.413-.18-2.485-1.4-2.485-2.857 0-2.3 2.51-3.635 4.368-2.434a5.085 5.085 0 0 0-1.883 5.29Zm8.374.422c-1.381 3.001-5.617 3.004-6.998 0-1.223-2.663.741-5.55 3.488-5.551 2.913.036 4.693 2.978 3.51 5.55ZM2.046 12.404a4.482 4.482 0 0 1 4.6-3.984 5.057 5.057 0 0 0 1.985 1.937 7.142 7.142 0 0 0-2.996 2.047h-3.59Zm14.299 0a7.14 7.14 0 0 0-2.983-2.042 5.081 5.081 0 0 0 1.994-1.942 4.48 4.48 0 0 1 4.6 3.984h-3.611ZM5.047 16.62a6.119 6.119 0 0 1 1.724-3.747c3.609-3.648 9.74-1.288 10.16 3.747H5.048Z"/></svg>